<svg width="1873" height="914" viewBox="0 0 1873 914" fill="none" xmlns="http://www.w3.org/2000/svg">
<g clip-path="url(#clip0_40_9353)">
<rect width="1873" height="914" fill="#121212"/>
<path fill-rule="evenodd" clip-rule="evenodd" d="M1642.89 146.565L1639.99 204.973L1454.08 198.439L1437.7 598.607L1346.94 639.627L1161.4 645.891L1166.27 787.633L1641.38 790.537L1640.55 848.988L-261.737 848.54L-260.907 790.09L746.192 785.065L727.362 237.244L1105.44 165.313L1216.73 132.593L1424.41 138.887L1642.89 146.565ZM1082.53 229.324L793.53 284.307L810.756 785.459L1101.71 787.238L1082.53 229.324ZM1146.57 214.56L1159.39 587.48L1330.96 581.687L1374.66 561.937L1389.63 196.329L1225.5 191.355L1146.57 214.56Z" fill="black"/>
<path fill-rule="evenodd" clip-rule="evenodd" d="M457.997 247.059L728.695 236.87L730.509 295.449L457.403 305.567L290.573 298.449L299.715 785.809L235.233 787.806L225.99 297.184L-255.808 304.117L-255.854 245.666L258.197 238.534L457.997 247.059Z" fill="black"/>
<path fill-rule="evenodd" clip-rule="evenodd" d="M447.148 22.329L558.234 245.559L499.046 269.531L387.136 44.2529L332.367 -98.4572L-267.268 34.9152L-268.205 -28.828L309.641 -153.132L-316.455 -1465.8L-256.74 -1488.24L381.555 -148.585L447.148 22.329Z" fill="black"/>
<g filter="url(#filter0_iii_40_9353)">
<path d="M1228.42 136.679C1240.99 133.919 1253.85 139.517 1260.65 150.466L1261.13 151.239C1271.08 167.242 1275.38 186.081 1273.36 204.75C1272.02 217.082 1263.17 227.262 1251.12 230.297C1229.96 235.627 1193.97 244.656 1152.6 254.876C1118.11 263.399 1083.19 270.937 1060.43 275.672C1045.51 278.775 1030.51 270.845 1024.49 256.836L1022.45 252.089C1018.09 241.939 1015.61 231.09 1015.14 220.074L1015.05 217.775C1014.4 202.618 1024.43 189.114 1039.12 185.27C1059.42 179.959 1090.83 171.641 1129.07 161.191C1171.28 149.658 1207.11 141.356 1228.42 136.679Z" fill="url(#paint0_linear_40_9353)"/>
</g>
<path d="M1184.87 157.964C1193.78 153.649 1204.89 156.912 1209.51 165.699L1209.89 166.416C1217.41 180.72 1221.09 196.702 1220.57 212.8C1220.26 222.339 1211.99 229.762 1202.42 229.866C1187.25 230.033 1163.81 231.58 1138.26 238.012C1117.03 243.357 1096.4 251.704 1082.07 258.165C1071.66 262.857 1059.04 258.06 1054.94 247.375L1054.26 245.605C1049.99 234.463 1047.3 222.789 1046.28 210.924C1045.35 200.174 1054.56 190.982 1065.37 190.611C1079.67 190.12 1100.31 187.982 1124.06 181.186C1149.95 173.778 1171.29 164.547 1184.87 157.964Z" fill="#A7A5A5"/>
<path fill-rule="evenodd" clip-rule="evenodd" d="M1221.57 144.581C1236.14 141.791 1251.11 147.404 1260.62 158.846C1268.99 168.927 1272.45 182.302 1269.9 195.092C1266.9 210.173 1255.63 222.214 1240.74 226.165C1233.63 228.05 1225.36 230.238 1216.44 232.583C1216.13 232.665 1215.9 232.281 1216.09 232.028C1216.29 231.773 1216.02 231.432 1215.72 231.543C1213.84 232.227 1211.84 232.633 1209.77 232.71C1193.08 233.332 1166.19 235.602 1136.55 243.087C1113.14 248.999 1090.39 258.238 1074.42 265.483C1071.51 266.8 1068.45 267.471 1065.42 267.556C1065.33 267.559 1065.29 267.692 1065.38 267.736C1065.47 267.777 1065.45 267.901 1065.36 267.917C1059.93 268.918 1055.26 269.753 1051.66 270.387C1046.76 271.251 1041.84 269.101 1039.08 264.95L1037.88 263.149C1026.2 245.576 1021.2 224.441 1023.81 203.587C1024.37 199.068 1027.48 195.305 1031.83 193.939C1035.7 192.724 1041.02 191.066 1047.43 189.088C1047.81 188.972 1048.11 189.471 1047.84 189.762C1047.58 190.049 1047.9 190.472 1048.26 190.337C1050.54 189.489 1052.98 188.988 1055.49 188.902C1071.46 188.357 1094.26 185.97 1120.43 178.445C1150.31 169.856 1174.73 159.037 1189.8 151.574C1190.55 151.207 1191.3 150.892 1192.07 150.628C1192.11 150.614 1192.1 150.552 1192.06 150.548C1192.01 150.544 1192.01 150.474 1192.06 150.464C1203.02 148.189 1213.15 146.192 1221.57 144.581ZM1189.33 158.746C1197.8 154.673 1208.33 157.766 1212.77 166.084L1213.15 166.784C1220.65 180.833 1224.27 196.601 1223.65 212.465C1223.29 221.526 1215.44 228.558 1206.35 228.684C1191.32 228.892 1167.64 230.476 1141.76 236.984C1120.24 242.398 1099.3 250.834 1085 257.231C1075.06 261.679 1063.04 257.103 1059.1 246.925L1058.44 245.209C1054.18 234.206 1051.52 222.657 1050.55 210.918C1049.71 200.652 1058.47 191.891 1068.79 191.524C1083.02 191.017 1103.89 188.87 1128.02 181.998C1154.28 174.517 1175.84 165.229 1189.33 158.746Z" fill="#181818"/>
<g filter="url(#filter1_di_40_9353)">
<path d="M1199.62 150.305C1200.38 149.877 1201.34 150.161 1201.75 150.933L1221.18 187.884C1221.3 188.117 1221.36 188.377 1221.35 188.639L1220.05 228.753C1220.03 229.619 1219.29 230.286 1218.42 230.229C1210.83 229.735 1176.96 228.267 1138.26 238.012C1104.12 246.609 1071.5 262.975 1064.19 266.763C1063.38 267.185 1062.38 266.798 1062.06 265.941L1047.9 229.009C1047.85 228.877 1047.82 228.738 1047.81 228.598L1044.64 191.972C1044.55 191.018 1045.35 190.223 1046.31 190.3C1053.94 190.92 1084.73 192.44 1124.06 181.186C1164 169.76 1193.09 153.995 1199.62 150.305Z" fill="url(#paint1_linear_40_9353)"/>
</g>
<g filter="url(#filter2_d_40_9353)">
<g filter="url(#filter3_d_40_9353)">
<path d="M1255.43 220.391C1261.39 215.56 1262.06 210.49 1261.37 207.315C1261.14 206.266 1259.86 206.174 1259.19 207.016C1253.84 213.757 1244.55 220.897 1237.92 225.413C1236.69 226.254 1237.28 228.005 1238.75 227.725C1243.65 226.788 1250.16 224.656 1255.43 220.391Z" fill="white"/>
<path d="M1254.05 218.683C1257.85 215.602 1259.12 212.569 1259.35 210.239C1254.89 215.291 1248.71 220.349 1243.32 224.292C1246.91 223.132 1250.76 221.343 1254.05 218.683Z" stroke="white" stroke-width="4.39582" stroke-linecap="round"/>
</g>
</g>
<g filter="url(#filter4_d_40_9353)">
<path d="M1235.38 141.725C1243.33 143.08 1246.5 147.412 1247.45 150.66C1247.75 151.691 1246.68 152.397 1245.68 151.988C1237.32 148.542 1225.05 146.792 1216.7 146.082C1215.21 145.956 1214.87 144.132 1216.28 143.651C1221.22 141.972 1228.33 140.524 1235.38 141.725Z" fill="white"/>
<path d="M1235.01 143.892C1240.25 144.784 1242.97 147.034 1244.33 149.119C1237.51 146.693 1228.93 145.218 1221.83 144.391C1225.82 143.527 1230.45 143.116 1235.01 143.892Z" stroke="white" stroke-width="4.39582" stroke-linecap="round"/>
</g>
<g filter="url(#filter5_di_40_9353)">
<path fill-rule="evenodd" clip-rule="evenodd" d="M1218.34 157.819C1214.81 151.393 1207.67 147.814 1200.45 149.075C1198.61 149.398 1196.56 149.764 1194.34 150.176C1201.79 149.464 1209.35 153.076 1212.94 160.034L1215.14 164.301C1222.92 179.377 1226.66 196.179 1226.01 213.073L1225.92 215.359C1225.54 225.089 1217.29 232.719 1207.53 233.065C1191.06 233.647 1164.76 235.842 1135.82 243.151C1113.05 248.903 1090.93 257.901 1075.25 265.041C1074.93 265.186 1074.61 265.323 1074.29 265.452C1075.82 265.532 1077.38 265.444 1078.94 265.174C1095.39 262.334 1121.56 257.432 1147.13 251.037C1178.43 243.21 1205.17 235.66 1219.72 231.433C1226.79 229.379 1231.72 223.086 1232.1 215.741L1232.21 213.515C1233.15 195.316 1228.98 177.186 1220.17 161.159L1218.34 157.819ZM1052.65 189.128C1053.86 188.888 1055.1 188.742 1056.35 188.7C1072.05 188.175 1094.27 185.838 1119.71 178.509C1148.86 170.109 1172.74 159.498 1187.59 152.104C1188.66 151.57 1189.77 151.144 1190.89 150.825C1175.5 153.762 1152.97 158.62 1126.89 165.972C1097.53 174.246 1073.56 181.408 1059.04 185.826C1056.67 186.548 1054.52 187.68 1052.65 189.128Z" fill="url(#paint2_linear_40_9353)"/>
</g>
<g filter="url(#filter6_iii_40_9353)">
<path fill-rule="evenodd" clip-rule="evenodd" d="M1215.71 144.044C1230.88 141.161 1246.44 147.133 1256.17 159.18C1264.37 169.338 1267.8 182.615 1265.44 195.38C1262.53 211.105 1250.87 223.73 1235.37 227.847C1228.13 229.771 1219.74 231.993 1210.75 234.361C1210.95 234.131 1211.15 233.896 1211.34 233.655C1209.37 234.393 1207.26 234.824 1205.07 234.89C1188.48 235.392 1162.07 237.492 1133.05 244.825C1110.63 250.49 1088.85 259.369 1073.17 266.556C1072.69 266.775 1072.21 266.978 1071.72 267.164C1068.62 267.743 1065.68 268.284 1062.94 268.783C1062.78 268.783 1062.62 268.781 1062.46 268.778C1062.5 268.801 1062.55 268.823 1062.59 268.846C1057.68 269.738 1053.41 270.492 1050.03 271.081C1044.84 271.984 1039.63 269.667 1036.76 265.24L1035.58 263.414C1023.91 245.436 1018.84 224.022 1021.23 202.828C1021.77 198.04 1025.04 194.032 1029.64 192.577C1033.41 191.386 1038.47 189.797 1044.52 187.918C1043.48 189.076 1042.56 190.342 1041.8 191.692C1045.33 189.548 1049.43 188.248 1053.73 188.108C1069.47 187.596 1091.4 185.268 1116.4 178.039C1145.63 169.586 1169.56 158.831 1184.48 151.303C1185.98 150.542 1187.56 149.998 1189.15 149.659C1188.88 149.585 1188.6 149.517 1188.32 149.458C1198.41 147.382 1207.78 145.55 1215.71 144.044ZM1183.55 158.883C1192.44 154.569 1203.55 157.83 1208.15 166.612L1208.52 167.321C1215.92 181.458 1219.56 197.231 1219.08 213.121C1218.8 222.643 1210.53 230.056 1200.97 230.15C1186.02 230.297 1163.05 231.8 1138.04 238.091C1117.27 243.317 1097.08 251.486 1082.98 257.849C1072.61 262.533 1060.01 257.748 1055.93 247.09L1055.26 245.334C1051.06 234.341 1048.41 222.83 1047.38 211.13C1046.43 200.417 1055.63 191.253 1066.41 190.89C1080.49 190.416 1100.7 188.323 1123.94 181.675C1149.27 174.424 1170.17 165.377 1183.55 158.883Z" fill="url(#paint3_linear_40_9353)"/>
</g>
<g filter="url(#filter7_ii_40_9353)">
<path d="M1158.85 169.311C1171.28 187.11 1176.83 208.818 1174.47 230.402L1174.39 231.154C1174.39 231.154 1160.94 232.684 1133.28 239.595C1105.96 247.123 1094.2 252.593 1094.2 252.593L1093.1 250.363C1083.76 231.507 1078.83 210.776 1078.68 189.735C1078.68 189.735 1100.45 186.946 1118.96 182.172C1134.87 178.069 1158.85 169.311 1158.85 169.311Z" fill="url(#paint4_linear_40_9353)"/>
</g>
<g filter="url(#filter8_ii_40_9353)">
<path d="M315.219 431.425C315.013 418.813 322.892 407.546 334.733 403.14L335.569 402.829C352.875 396.388 371.807 395.918 389.347 401.495C400.932 405.178 408.989 415.661 409.561 427.823C410.566 449.182 412.239 485.511 414.01 527.236C415.482 561.893 415.934 596.76 416.058 619.547C416.14 634.64 405.491 647.64 390.706 650.733L386.193 651.677C375.481 653.918 364.46 654.189 353.672 652.478L351.891 652.196C337.048 649.842 325.908 637.454 325.063 622.437C323.907 601.9 322.032 570.217 319.443 531.617C316.574 488.831 315.568 452.797 315.219 431.425Z" fill="url(#paint5_linear_40_9353)"/>
</g>
<path d="M327.197 477.393C324.783 467.999 330.08 457.954 339.419 455.225L340.181 455.002C355.383 450.56 371.451 450.134 386.813 453.766C395.916 455.918 401.437 465.306 399.676 474.522C396.886 489.123 393.812 511.942 395.023 537.734C396.028 559.162 400.033 580.607 403.451 595.63C405.934 606.54 398.871 617.732 387.812 619.587L385.98 619.895C374.446 621.83 362.71 622.141 351.113 620.82C340.606 619.623 333.568 608.982 335.314 598.529C337.625 584.693 339.585 564.454 337.677 540.318C335.596 514.007 330.878 491.72 327.197 477.393Z" fill="#A7A5A5"/>
<g filter="url(#filter9_di_40_9353)">
<path fill-rule="evenodd" clip-rule="evenodd" d="M321.477 439.538C321.631 424.995 329.935 411.705 342.774 404.802C354.085 398.721 367.606 397.999 379.396 402.931C393.3 408.747 402.674 421.915 403.572 436.992C404 444.179 404.493 452.552 405.011 461.564C405.03 461.892 404.597 462.054 404.383 461.804C404.167 461.553 403.77 461.76 403.822 462.087C404.135 464.072 404.143 466.132 403.806 468.194C401.165 484.36 398.143 510.552 399.563 540.361C400.689 563.996 405.138 587.648 408.991 604.4C409.692 607.446 409.742 610.512 409.234 613.439C409.218 613.535 409.34 613.591 409.399 613.514C409.454 613.442 409.57 613.483 409.568 613.573C409.472 618.986 409.367 623.632 409.276 627.215C409.153 632.089 406.131 636.398 401.607 638.241L399.644 639.041C380.492 646.845 359.219 647.531 339.694 640.974C335.463 639.553 332.453 635.835 331.987 631.389C331.573 627.436 331.013 622.007 330.361 615.457C330.323 615.073 330.859 614.886 331.088 615.198C331.313 615.504 331.781 615.279 331.722 614.904C331.352 612.549 331.344 610.111 331.75 607.684C334.332 592.24 336.474 569.873 334.336 543.27C331.905 513.024 326.299 487.536 322.067 471.597C321.842 470.749 321.678 469.896 321.573 469.043C321.567 468.993 321.498 468.986 321.483 469.034C321.467 469.085 321.388 469.074 321.388 469.02C321.334 458.053 321.388 447.932 321.477 439.538ZM328.815 473.258C326.55 464.326 331.568 454.819 340.422 452.169L341.167 451.945C356.121 447.47 371.973 447.054 387.089 450.743C395.723 452.849 400.952 461.752 399.305 470.511C396.581 484.988 393.498 508.041 394.716 534.164C395.729 555.897 399.76 577.65 403.124 592.629C405.464 603.045 398.731 613.694 388.188 615.501L386.411 615.805C375.013 617.759 363.403 618.063 351.939 616.708C341.913 615.523 335.202 605.401 336.856 595.421C339.138 581.648 341.134 561.183 339.225 536.674C337.147 509.996 332.419 487.472 328.815 473.258Z" fill="url(#paint6_linear_40_9353)"/>
</g>
<g filter="url(#filter10_di_40_9353)">
<path d="M322.714 461.753C322.447 460.934 322.912 460.048 323.742 459.806L362.994 448.336C363.244 448.263 363.508 448.256 363.76 448.316L402.02 457.361C402.855 457.558 403.357 458.408 403.132 459.239C401.174 466.464 393.191 498.693 395.023 537.734C396.639 572.174 406.001 606.657 408.229 614.45C408.479 615.322 407.908 616.216 407.011 616.366L368.803 622.776C368.665 622.8 368.524 622.803 368.385 622.787L332.608 618.711C331.667 618.604 331.05 617.677 331.313 616.764C333.401 609.518 340.834 580.253 337.677 540.318C334.47 499.769 324.999 468.775 322.714 461.753Z" fill="url(#paint7_linear_40_9353)"/>
</g>
<g filter="url(#filter11_d_40_9353)">
<g filter="url(#filter12_d_40_9353)">
<path d="M400.883 421.759C397.411 415.106 392.687 413.471 389.502 413.511C388.438 413.524 388.095 414.75 388.781 415.565C394.198 421.998 399.231 432.267 402.279 439.5C402.854 440.863 404.67 440.628 404.683 439.149C404.729 434.268 403.943 427.624 400.883 421.759Z" fill="white"/>
<path d="M398.952 422.763C396.759 418.56 394.129 416.751 391.955 416.061C395.897 421.28 399.512 428.116 402.234 434.01C401.811 430.37 400.842 426.385 398.952 422.763Z" stroke="white" stroke-width="4.35467" stroke-linecap="round"/>
</g>
</g>
<g filter="url(#filter13_d_40_9353)">
<path d="M321.42 425.718C324.261 418.36 329.022 416.151 332.325 415.861C333.385 415.768 333.86 416.951 333.268 417.835C328.35 425.179 324.295 436.576 321.988 444.451C321.573 445.871 319.736 445.845 319.549 444.378C318.903 439.314 318.904 432.234 321.42 425.718Z" fill="white"/>
<path d="M323.451 426.502C325.306 421.696 327.96 419.516 330.208 418.6C326.588 424.641 323.533 432.496 321.367 439.109C321.327 435.143 321.84 430.675 323.451 426.502Z" stroke="white" stroke-width="4.35467" stroke-linecap="round"/>
</g>
<g filter="url(#filter14_di_40_9353)">
<path fill-rule="evenodd" clip-rule="evenodd" d="M333.689 445.177C326.755 447.344 321.877 453.568 321.685 460.82C321.631 462.856 321.582 465.128 321.544 467.62C322.06 459.962 327.134 452.96 334.838 450.775L338.907 449.621C355.074 445.036 372.123 444.705 388.398 448.66L390.13 449.081C399.503 451.359 405.288 460.876 403.711 470.421C401.075 486.37 398.097 511.971 399.485 541.072C400.581 564.063 404.921 587.067 408.73 603.52C408.807 603.852 408.876 604.185 408.938 604.519C409.313 603.063 409.532 601.548 409.576 599.991C410.047 583.639 410.428 557.554 409.259 531.744C407.832 500.252 405.787 473.17 404.557 458.341C403.953 451.07 398.81 445.046 391.754 443.233L390.05 442.795C372.565 438.303 354.141 438.787 336.849 444.19L333.689 445.177ZM331.415 610.461C331.42 609.253 331.521 608.036 331.725 606.822C334.273 591.638 336.35 569.841 334.258 543.982C331.869 514.462 326.356 489.548 322.148 473.833C321.779 472.454 321.572 471.061 321.516 469.677C321.332 485.04 321.598 507.853 323.611 534.647C325.85 564.451 328.067 588.868 329.487 603.676C329.719 606.098 330.388 608.386 331.415 610.461Z" fill="url(#paint8_linear_40_9353)"/>
</g>
<g filter="url(#filter15_ii_40_9353)">
<path fill-rule="evenodd" clip-rule="evenodd" d="M320.056 445.639C320.237 430.507 329 416.719 342.463 409.72C353.816 403.817 367.236 403.104 379.039 407.854C393.579 413.704 403.438 427.364 404.378 443.048C404.803 450.131 405.287 458.301 405.794 467.055C405.805 467.249 405.551 467.341 405.43 467.188C405.309 467.033 405.066 467.144 405.092 467.339C405.343 469.231 405.318 471.184 404.985 473.137C402.247 489.186 399.159 514.875 400.553 544.059C401.634 566.695 405.928 589.341 409.781 605.802C410.027 606.854 410.199 607.908 410.301 608.96C410.271 610.839 410.24 612.655 410.207 614.4C410.131 614.978 410.035 615.552 409.918 616.12C409.903 616.194 409.998 616.238 410.044 616.178C410.085 616.123 410.173 616.154 410.172 616.223C410.069 621.441 409.957 625.952 409.859 629.492C409.718 634.652 406.48 639.2 401.669 641.099L399.685 641.881C380.147 649.59 358.592 650.295 338.698 643.876C334.204 642.427 330.99 638.507 330.488 633.803C330.115 630.312 329.634 625.74 329.08 620.314C329.021 619.739 329.788 619.424 330.181 619.847C330.584 620.28 331.262 619.844 331.112 619.272C330.268 616.052 330.071 612.624 330.645 609.222C333.215 594.002 335.244 572.484 333.162 547.066C330.737 517.464 325.097 492.474 320.774 476.669C320.332 475.054 320.113 473.418 320.1 471.799C320.1 471.751 320.035 471.736 320.014 471.778C319.993 471.822 319.926 471.806 319.926 471.758C319.904 462.134 319.965 453.22 320.056 445.639ZM327.821 478.84C325.406 469.465 330.701 459.42 340.03 456.712L340.784 456.493C355.802 452.134 371.66 451.708 386.831 455.258C395.922 457.385 401.435 466.764 399.666 475.965C396.9 490.352 393.876 512.71 395.055 537.959C396.034 558.929 399.954 579.912 403.326 594.688C405.807 605.564 398.76 616.735 387.73 618.577L385.913 618.88C374.536 620.779 362.963 621.09 351.524 619.803C341.05 618.625 334.036 608.007 335.784 597.586C338.067 583.97 339.988 564.145 338.12 540.534C336.084 514.786 331.457 492.953 327.821 478.84Z" fill="url(#paint9_linear_40_9353)"/>
</g>
<g filter="url(#filter16_ii_40_9353)">
<path d="M333.329 504.582C352.845 496.098 374.776 494.986 395.05 501.452L395.756 501.677C395.756 501.677 394.611 514.891 395.869 542.807C397.786 570.52 400.754 582.872 400.754 582.872L398.397 583.499C378.469 588.801 357.597 589.505 337.357 585.556C337.357 585.556 338.912 564.101 337.926 545.393C337.078 529.315 333.329 504.582 333.329 504.582Z" fill="url(#paint10_linear_40_9353)"/>
</g>
</g>
<defs>
<filter id="filter0_iii_40_9353" x="1015.02" y="129.842" width="263.435" height="148.034" filterUnits="userSpaceOnUse" color-interpolation-filters="sRGB">
<feFlood flood-opacity="0" result="BackgroundImageFix"/>
<feBlend mode="normal" in="SourceGraphic" in2="BackgroundImageFix" result="shape"/>
<feColorMatrix in="SourceAlpha" type="matrix" values="0 0 0 0 0 0 0 0 0 0 0 0 0 0 0 0 0 0 127 0" result="hardAlpha"/>
<feOffset dx="4.60452" dy="-6.13935"/>
<feGaussianBlur stdDeviation="18.4181"/>
<feComposite in2="hardAlpha" operator="arithmetic" k2="-1" k3="1"/>
<feColorMatrix type="matrix" values="0 0 0 0 0 0 0 0 0 0 0 0 0 0 0 0 0 0 0.07 0"/>
<feBlend mode="normal" in2="shape" result="effect1_innerShadow_40_9353"/>
<feColorMatrix in="SourceAlpha" type="matrix" values="0 0 0 0 0 0 0 0 0 0 0 0 0 0 0 0 0 0 127 0" result="hardAlpha"/>
<feOffset dy="-0.767419"/>
<feGaussianBlur stdDeviation="1.53484"/>
<feComposite in2="hardAlpha" operator="arithmetic" k2="-1" k3="1"/>
<feColorMatrix type="matrix" values="0 0 0 0 0 0 0 0 0 0 0 0 0 0 0 0 0 0 0.25 0"/>
<feBlend mode="normal" in2="effect1_innerShadow_40_9353" result="effect2_innerShadow_40_9353"/>
<feColorMatrix in="SourceAlpha" type="matrix" values="0 0 0 0 0 0 0 0 0 0 0 0 0 0 0 0 0 0 127 0" result="hardAlpha"/>
<feOffset dy="3.06968"/>
<feGaussianBlur stdDeviation="0.767419"/>
<feComposite in2="hardAlpha" operator="arithmetic" k2="-1" k3="1"/>
<feColorMatrix type="matrix" values="0 0 0 0 0 0 0 0 0 0 0 0 0 0 0 0 0 0 0.25 0"/>
<feBlend mode="normal" in2="effect2_innerShadow_40_9353" result="effect3_innerShadow_40_9353"/>
</filter>
<filter id="filter1_di_40_9353" x="1041.7" y="150.105" width="180.41" height="119.76" filterUnits="userSpaceOnUse" color-interpolation-filters="sRGB">
<feFlood flood-opacity="0" result="BackgroundImageFix"/>
<feColorMatrix in="SourceAlpha" type="matrix" values="0 0 0 0 0 0 0 0 0 0 0 0 0 0 0 0 0 0 127 0" result="hardAlpha"/>
<feOffset dy="0.757642"/>
<feGaussianBlur stdDeviation="0.378821"/>
<feColorMatrix type="matrix" values="0 0 0 0 0.925374 0 0 0 0 0.925374 0 0 0 0 0.925374 0 0 0 0.37 0"/>
<feBlend mode="normal" in2="BackgroundImageFix" result="effect1_dropShadow_40_9353"/>
<feBlend mode="normal" in="SourceGraphic" in2="effect1_dropShadow_40_9353" result="shape"/>
<feColorMatrix in="SourceAlpha" type="matrix" values="0 0 0 0 0 0 0 0 0 0 0 0 0 0 0 0 0 0 127 0" result="hardAlpha"/>
<feOffset dx="-2.93055" dy="3.66319"/>
<feGaussianBlur stdDeviation="1.46527"/>
<feComposite in2="hardAlpha" operator="arithmetic" k2="-1" k3="1"/>
<feColorMatrix type="matrix" values="0 0 0 0 0 0 0 0 0 0 0 0 0 0 0 0 0 0 0.8 0"/>
<feBlend mode="normal" in2="shape" result="effect2_innerShadow_40_9353"/>
</filter>
<filter id="filter2_d_40_9353" x="1235.79" y="203.518" width="27.2646" height="24.2367" filterUnits="userSpaceOnUse" color-interpolation-filters="sRGB">
<feFlood flood-opacity="0" result="BackgroundImageFix"/>
<feColorMatrix in="SourceAlpha" type="matrix" values="0 0 0 0 0 0 0 0 0 0 0 0 0 0 0 0 0 0 127 0" result="hardAlpha"/>
<feOffset dy="-1.46528"/>
<feGaussianBlur stdDeviation="0.732638"/>
<feColorMatrix type="matrix" values="0 0 0 0 0 0 0 0 0 0 0 0 0 0 0 0 0 0 0.25 0"/>
<feBlend mode="normal" in2="BackgroundImageFix" result="effect1_dropShadow_40_9353"/>
<feBlend mode="normal" in="SourceGraphic" in2="effect1_dropShadow_40_9353" result="shape"/>
</filter>
<filter id="filter3_d_40_9353" x="1236.52" y="206.449" width="25.7993" height="22.7714" filterUnits="userSpaceOnUse" color-interpolation-filters="sRGB">
<feFlood flood-opacity="0" result="BackgroundImageFix"/>
<feColorMatrix in="SourceAlpha" type="matrix" values="0 0 0 0 0 0 0 0 0 0 0 0 0 0 0 0 0 0 127 0" result="hardAlpha"/>
<feOffset dy="0.732637"/>
<feGaussianBlur stdDeviation="0.366319"/>
<feColorMatrix type="matrix" values="0 0 0 0 1 0 0 0 0 1 0 0 0 0 1 0 0 0 0.25 0"/>
<feBlend mode="normal" in2="BackgroundImageFix" result="effect1_dropShadow_40_9353"/>
<feBlend mode="normal" in="SourceGraphic" in2="effect1_dropShadow_40_9353" result="shape"/>
</filter>
<filter id="filter4_d_40_9353" x="1213.92" y="138.353" width="35.0483" height="13.7528" filterUnits="userSpaceOnUse" color-interpolation-filters="sRGB">
<feFlood flood-opacity="0" result="BackgroundImageFix"/>
<feColorMatrix in="SourceAlpha" type="matrix" values="0 0 0 0 0 0 0 0 0 0 0 0 0 0 0 0 0 0 127 0" result="hardAlpha"/>
<feOffset dy="-1.46527"/>
<feGaussianBlur stdDeviation="0.732637"/>
<feColorMatrix type="matrix" values="0 0 0 0 0 0 0 0 0 0 0 0 0 0 0 0 0 0 0.25 0"/>
<feBlend mode="normal" in2="BackgroundImageFix" result="effect1_dropShadow_40_9353"/>
<feBlend mode="normal" in="SourceGraphic" in2="effect1_dropShadow_40_9353" result="shape"/>
</filter>
<filter id="filter5_di_40_9353" x="1049.72" y="148.824" width="183.382" height="119.587" filterUnits="userSpaceOnUse" color-interpolation-filters="sRGB">
<feFlood flood-opacity="0" result="BackgroundImageFix"/>
<feColorMatrix in="SourceAlpha" type="matrix" values="0 0 0 0 0 0 0 0 0 0 0 0 0 0 0 0 0 0 127 0" result="hardAlpha"/>
<feOffset dy="0.757642"/>
<feGaussianBlur stdDeviation="0.378821"/>
<feColorMatrix type="matrix" values="0 0 0 0 0.925374 0 0 0 0 0.925374 0 0 0 0 0.925374 0 0 0 0.37 0"/>
<feBlend mode="normal" in2="BackgroundImageFix" result="effect1_dropShadow_40_9353"/>
<feBlend mode="normal" in="SourceGraphic" in2="effect1_dropShadow_40_9353" result="shape"/>
<feColorMatrix in="SourceAlpha" type="matrix" values="0 0 0 0 0 0 0 0 0 0 0 0 0 0 0 0 0 0 127 0" result="hardAlpha"/>
<feOffset dx="-2.93055" dy="3.66319"/>
<feGaussianBlur stdDeviation="1.46527"/>
<feComposite in2="hardAlpha" operator="arithmetic" k2="-1" k3="1"/>
<feColorMatrix type="matrix" values="0 0 0 0 0 0 0 0 0 0 0 0 0 0 0 0 0 0 0.8 0"/>
<feBlend mode="normal" in2="shape" result="effect2_innerShadow_40_9353"/>
</filter>
<filter id="filter6_iii_40_9353" x="1020.65" y="141.793" width="245.513" height="132.551" filterUnits="userSpaceOnUse" color-interpolation-filters="sRGB">
<feFlood flood-opacity="0" result="BackgroundImageFix"/>
<feBlend mode="normal" in="SourceGraphic" in2="BackgroundImageFix" result="shape"/>
<feColorMatrix in="SourceAlpha" type="matrix" values="0 0 0 0 0 0 0 0 0 0 0 0 0 0 0 0 0 0 127 0" result="hardAlpha"/>
<feOffset dy="4.60451"/>
<feGaussianBlur stdDeviation="1.53484"/>
<feComposite in2="hardAlpha" operator="arithmetic" k2="-1" k3="1"/>
<feColorMatrix type="matrix" values="0 0 0 0 0.00392157 0 0 0 0 0.00392157 0 0 0 0 0.00392157 0 0 0 0.2 0"/>
<feBlend mode="normal" in2="shape" result="effect1_innerShadow_40_9353"/>
<feColorMatrix in="SourceAlpha" type="matrix" values="0 0 0 0 0 0 0 0 0 0 0 0 0 0 0 0 0 0 127 0" result="hardAlpha"/>
<feOffset dy="-0.767419"/>
<feGaussianBlur stdDeviation="1.53484"/>
<feComposite in2="hardAlpha" operator="arithmetic" k2="-1" k3="1"/>
<feColorMatrix type="matrix" values="0 0 0 0 0 0 0 0 0 0 0 0 0 0 0 0 0 0 0.25 0"/>
<feBlend mode="normal" in2="effect1_innerShadow_40_9353" result="effect2_innerShadow_40_9353"/>
<feColorMatrix in="SourceAlpha" type="matrix" values="0 0 0 0 0 0 0 0 0 0 0 0 0 0 0 0 0 0 127 0" result="hardAlpha"/>
<feOffset dy="-1.53484"/>
<feGaussianBlur stdDeviation="1.53484"/>
<feComposite in2="hardAlpha" operator="arithmetic" k2="-1" k3="1"/>
<feColorMatrix type="matrix" values="0 0 0 0 1 0 0 0 0 1 0 0 0 0 1 0 0 0 0.25 0"/>
<feBlend mode="normal" in2="effect2_innerShadow_40_9353" result="effect3_innerShadow_40_9353"/>
</filter>
<filter id="filter7_ii_40_9353" x="1078.68" y="163.172" width="100.928" height="89.4211" filterUnits="userSpaceOnUse" color-interpolation-filters="sRGB">
<feFlood flood-opacity="0" result="BackgroundImageFix"/>
<feBlend mode="normal" in="SourceGraphic" in2="BackgroundImageFix" result="shape"/>
<feColorMatrix in="SourceAlpha" type="matrix" values="0 0 0 0 0 0 0 0 0 0 0 0 0 0 0 0 0 0 127 0" result="hardAlpha"/>
<feOffset dx="4.60451" dy="-6.13935"/>
<feGaussianBlur stdDeviation="18.4181"/>
<feComposite in2="hardAlpha" operator="arithmetic" k2="-1" k3="1"/>
<feColorMatrix type="matrix" values="0 0 0 0 0 0 0 0 0 0 0 0 0 0 0 0 0 0 0.07 0"/>
<feBlend mode="normal" in2="shape" result="effect1_innerShadow_40_9353"/>
<feColorMatrix in="SourceAlpha" type="matrix" values="0 0 0 0 0 0 0 0 0 0 0 0 0 0 0 0 0 0 127 0" result="hardAlpha"/>
<feOffset dy="-0.767419"/>
<feGaussianBlur stdDeviation="1.53484"/>
<feComposite in2="hardAlpha" operator="arithmetic" k2="-1" k3="1"/>
<feColorMatrix type="matrix" values="0 0 0 0 0 0 0 0 0 0 0 0 0 0 0 0 0 0 0.25 0"/>
<feBlend mode="normal" in2="effect1_innerShadow_40_9353" result="effect2_innerShadow_40_9353"/>
</filter>
<filter id="filter8_ii_40_9353" x="315.215" y="391.824" width="105.198" height="261.763" filterUnits="userSpaceOnUse" color-interpolation-filters="sRGB">
<feFlood flood-opacity="0" result="BackgroundImageFix"/>
<feBlend mode="normal" in="SourceGraphic" in2="BackgroundImageFix" result="shape"/>
<feColorMatrix in="SourceAlpha" type="matrix" values="0 0 0 0 0 0 0 0 0 0 0 0 0 0 0 0 0 0 127 0" result="hardAlpha"/>
<feOffset dx="4.35467" dy="-5.80623"/>
<feGaussianBlur stdDeviation="17.4187"/>
<feComposite in2="hardAlpha" operator="arithmetic" k2="-1" k3="1"/>
<feColorMatrix type="matrix" values="0 0 0 0 0 0 0 0 0 0 0 0 0 0 0 0 0 0 0.07 0"/>
<feBlend mode="normal" in2="shape" result="effect1_innerShadow_40_9353"/>
<feColorMatrix in="SourceAlpha" type="matrix" values="0 0 0 0 0 0 0 0 0 0 0 0 0 0 0 0 0 0 127 0" result="hardAlpha"/>
<feOffset dy="-0.725779"/>
<feGaussianBlur stdDeviation="1.45156"/>
<feComposite in2="hardAlpha" operator="arithmetic" k2="-1" k3="1"/>
<feColorMatrix type="matrix" values="0 0 0 0 0 0 0 0 0 0 0 0 0 0 0 0 0 0 0.25 0"/>
<feBlend mode="normal" in2="effect1_innerShadow_40_9353" result="effect2_innerShadow_40_9353"/>
</filter>
<filter id="filter9_di_40_9353" x="318.463" y="399.679" width="91.8597" height="248.661" filterUnits="userSpaceOnUse" color-interpolation-filters="sRGB">
<feFlood flood-opacity="0" result="BackgroundImageFix"/>
<feColorMatrix in="SourceAlpha" type="matrix" values="0 0 0 0 0 0 0 0 0 0 0 0 0 0 0 0 0 0 127 0" result="hardAlpha"/>
<feOffset dy="0.750549"/>
<feGaussianBlur stdDeviation="0.375275"/>
<feColorMatrix type="matrix" values="0 0 0 0 0.925374 0 0 0 0 0.925374 0 0 0 0 0.925374 0 0 0 0.37 0"/>
<feBlend mode="normal" in2="BackgroundImageFix" result="effect1_dropShadow_40_9353"/>
<feBlend mode="normal" in="SourceGraphic" in2="effect1_dropShadow_40_9353" result="shape"/>
<feColorMatrix in="SourceAlpha" type="matrix" values="0 0 0 0 0 0 0 0 0 0 0 0 0 0 0 0 0 0 127 0" result="hardAlpha"/>
<feOffset dx="-2.90311" dy="3.62889"/>
<feGaussianBlur stdDeviation="1.45156"/>
<feComposite in2="hardAlpha" operator="arithmetic" k2="-1" k3="1"/>
<feColorMatrix type="matrix" values="0 0 0 0 0 0 0 0 0 0 0 0 0 0 0 0 0 0 0.8 0"/>
<feBlend mode="normal" in2="shape" result="effect2_innerShadow_40_9353"/>
</filter>
<filter id="filter10_di_40_9353" x="319.735" y="448.276" width="89.3033" height="177.425" filterUnits="userSpaceOnUse" color-interpolation-filters="sRGB">
<feFlood flood-opacity="0" result="BackgroundImageFix"/>
<feColorMatrix in="SourceAlpha" type="matrix" values="0 0 0 0 0 0 0 0 0 0 0 0 0 0 0 0 0 0 127 0" result="hardAlpha"/>
<feOffset dy="0.750549"/>
<feGaussianBlur stdDeviation="0.375275"/>
<feColorMatrix type="matrix" values="0 0 0 0 0.925374 0 0 0 0 0.925374 0 0 0 0 0.925374 0 0 0 0.37 0"/>
<feBlend mode="normal" in2="BackgroundImageFix" result="effect1_dropShadow_40_9353"/>
<feBlend mode="normal" in="SourceGraphic" in2="effect1_dropShadow_40_9353" result="shape"/>
<feColorMatrix in="SourceAlpha" type="matrix" values="0 0 0 0 0 0 0 0 0 0 0 0 0 0 0 0 0 0 127 0" result="hardAlpha"/>
<feOffset dx="-2.90312" dy="3.62889"/>
<feGaussianBlur stdDeviation="1.45156"/>
<feComposite in2="hardAlpha" operator="arithmetic" k2="-1" k3="1"/>
<feColorMatrix type="matrix" values="0 0 0 0 0 0 0 0 0 0 0 0 0 0 0 0 0 0 0.8 0"/>
<feBlend mode="normal" in2="shape" result="effect2_innerShadow_40_9353"/>
</filter>
<filter id="filter11_d_40_9353" x="386.974" y="410.607" width="19.1624" height="29.7942" filterUnits="userSpaceOnUse" color-interpolation-filters="sRGB">
<feFlood flood-opacity="0" result="BackgroundImageFix"/>
<feColorMatrix in="SourceAlpha" type="matrix" values="0 0 0 0 0 0 0 0 0 0 0 0 0 0 0 0 0 0 127 0" result="hardAlpha"/>
<feOffset dy="-1.45156"/>
<feGaussianBlur stdDeviation="0.725779"/>
<feColorMatrix type="matrix" values="0 0 0 0 0 0 0 0 0 0 0 0 0 0 0 0 0 0 0.25 0"/>
<feBlend mode="normal" in2="BackgroundImageFix" result="effect1_dropShadow_40_9353"/>
<feBlend mode="normal" in="SourceGraphic" in2="effect1_dropShadow_40_9353" result="shape"/>
</filter>
<filter id="filter12_d_40_9353" x="387.7" y="413.51" width="17.7108" height="28.3427" filterUnits="userSpaceOnUse" color-interpolation-filters="sRGB">
<feFlood flood-opacity="0" result="BackgroundImageFix"/>
<feColorMatrix in="SourceAlpha" type="matrix" values="0 0 0 0 0 0 0 0 0 0 0 0 0 0 0 0 0 0 127 0" result="hardAlpha"/>
<feOffset dy="0.725779"/>
<feGaussianBlur stdDeviation="0.362889"/>
<feColorMatrix type="matrix" values="0 0 0 0 1 0 0 0 0 1 0 0 0 0 1 0 0 0 0.25 0"/>
<feBlend mode="normal" in2="BackgroundImageFix" result="effect1_dropShadow_40_9353"/>
<feBlend mode="normal" in="SourceGraphic" in2="effect1_dropShadow_40_9353" result="shape"/>
</filter>
<filter id="filter13_d_40_9353" x="317.736" y="412.952" width="17.2416" height="32.5452" filterUnits="userSpaceOnUse" color-interpolation-filters="sRGB">
<feFlood flood-opacity="0" result="BackgroundImageFix"/>
<feColorMatrix in="SourceAlpha" type="matrix" values="0 0 0 0 0 0 0 0 0 0 0 0 0 0 0 0 0 0 127 0" result="hardAlpha"/>
<feOffset dy="-1.45156"/>
<feGaussianBlur stdDeviation="0.725779"/>
<feColorMatrix type="matrix" values="0 0 0 0 0 0 0 0 0 0 0 0 0 0 0 0 0 0 0.25 0"/>
<feBlend mode="normal" in2="BackgroundImageFix" result="effect1_dropShadow_40_9353"/>
<feBlend mode="normal" in="SourceGraphic" in2="effect1_dropShadow_40_9353" result="shape"/>
</filter>
<filter id="filter14_di_40_9353" x="318.564" y="439.749" width="92.219" height="173.616" filterUnits="userSpaceOnUse" color-interpolation-filters="sRGB">
<feFlood flood-opacity="0" result="BackgroundImageFix"/>
<feColorMatrix in="SourceAlpha" type="matrix" values="0 0 0 0 0 0 0 0 0 0 0 0 0 0 0 0 0 0 127 0" result="hardAlpha"/>
<feOffset dy="0.750549"/>
<feGaussianBlur stdDeviation="0.375275"/>
<feColorMatrix type="matrix" values="0 0 0 0 0.925374 0 0 0 0 0.925374 0 0 0 0 0.925374 0 0 0 0.37 0"/>
<feBlend mode="normal" in2="BackgroundImageFix" result="effect1_dropShadow_40_9353"/>
<feBlend mode="normal" in="SourceGraphic" in2="effect1_dropShadow_40_9353" result="shape"/>
<feColorMatrix in="SourceAlpha" type="matrix" values="0 0 0 0 0 0 0 0 0 0 0 0 0 0 0 0 0 0 127 0" result="hardAlpha"/>
<feOffset dx="-2.90311" dy="3.62889"/>
<feGaussianBlur stdDeviation="1.45156"/>
<feComposite in2="hardAlpha" operator="arithmetic" k2="-1" k3="1"/>
<feColorMatrix type="matrix" values="0 0 0 0 0 0 0 0 0 0 0 0 0 0 0 0 0 0 0.8 0"/>
<feBlend mode="normal" in2="shape" result="effect2_innerShadow_40_9353"/>
</filter>
<filter id="filter15_ii_40_9353" x="319.922" y="398.928" width="94.7339" height="249.297" filterUnits="userSpaceOnUse" color-interpolation-filters="sRGB">
<feFlood flood-opacity="0" result="BackgroundImageFix"/>
<feBlend mode="normal" in="SourceGraphic" in2="BackgroundImageFix" result="shape"/>
<feColorMatrix in="SourceAlpha" type="matrix" values="0 0 0 0 0 0 0 0 0 0 0 0 0 0 0 0 0 0 127 0" result="hardAlpha"/>
<feOffset dx="4.35467" dy="-5.80623"/>
<feGaussianBlur stdDeviation="17.4187"/>
<feComposite in2="hardAlpha" operator="arithmetic" k2="-1" k3="1"/>
<feColorMatrix type="matrix" values="0 0 0 0 0 0 0 0 0 0 0 0 0 0 0 0 0 0 0.07 0"/>
<feBlend mode="normal" in2="shape" result="effect1_innerShadow_40_9353"/>
<feColorMatrix in="SourceAlpha" type="matrix" values="0 0 0 0 0 0 0 0 0 0 0 0 0 0 0 0 0 0 127 0" result="hardAlpha"/>
<feOffset dy="-0.725779"/>
<feGaussianBlur stdDeviation="1.45156"/>
<feComposite in2="hardAlpha" operator="arithmetic" k2="-1" k3="1"/>
<feColorMatrix type="matrix" values="0 0 0 0 0 0 0 0 0 0 0 0 0 0 0 0 0 0 0.09 0"/>
<feBlend mode="normal" in2="effect1_innerShadow_40_9353" result="effect2_innerShadow_40_9353"/>
</filter>
<filter id="filter16_ii_40_9353" x="333.329" y="491.492" width="71.7797" height="96.5826" filterUnits="userSpaceOnUse" color-interpolation-filters="sRGB">
<feFlood flood-opacity="0" result="BackgroundImageFix"/>
<feBlend mode="normal" in="SourceGraphic" in2="BackgroundImageFix" result="shape"/>
<feColorMatrix in="SourceAlpha" type="matrix" values="0 0 0 0 0 0 0 0 0 0 0 0 0 0 0 0 0 0 127 0" result="hardAlpha"/>
<feOffset dx="4.35467" dy="-5.80623"/>
<feGaussianBlur stdDeviation="17.4187"/>
<feComposite in2="hardAlpha" operator="arithmetic" k2="-1" k3="1"/>
<feColorMatrix type="matrix" values="0 0 0 0 0 0 0 0 0 0 0 0 0 0 0 0 0 0 0.07 0"/>
<feBlend mode="normal" in2="shape" result="effect1_innerShadow_40_9353"/>
<feColorMatrix in="SourceAlpha" type="matrix" values="0 0 0 0 0 0 0 0 0 0 0 0 0 0 0 0 0 0 127 0" result="hardAlpha"/>
<feOffset dy="-0.725779"/>
<feGaussianBlur stdDeviation="1.45156"/>
<feComposite in2="hardAlpha" operator="arithmetic" k2="-1" k3="1"/>
<feColorMatrix type="matrix" values="0 0 0 0 0 0 0 0 0 0 0 0 0 0 0 0 0 0 0.25 0"/>
<feBlend mode="normal" in2="effect1_innerShadow_40_9353" result="effect2_innerShadow_40_9353"/>
</filter>
<linearGradient id="paint0_linear_40_9353" x1="1024.71" y1="222.943" x2="1034.88" y2="130.127" gradientUnits="userSpaceOnUse">
<stop stop-color="#3D3D3D"/>
<stop offset="0.628054" stop-color="#737373"/>
<stop offset="1" stop-color="#B8B8B8"/>
</linearGradient>
<linearGradient id="paint1_linear_40_9353" x1="724.513" y1="341.317" x2="766.838" y2="126.922" gradientUnits="userSpaceOnUse">
<stop stop-color="#E8EAE9"/>
<stop offset="0.498386" stop-color="#707072"/>
<stop offset="1" stop-color="#2F3032"/>
</linearGradient>
<linearGradient id="paint2_linear_40_9353" x1="752.094" y1="346.275" x2="797.404" y2="125.806" gradientUnits="userSpaceOnUse">
<stop stop-color="#E8EAE9"/>
<stop offset="0.498386" stop-color="#707072"/>
<stop offset="1" stop-color="#2F3032"/>
</linearGradient>
<linearGradient id="paint3_linear_40_9353" x1="1031.88" y1="224.257" x2="1037.34" y2="143.244" gradientUnits="userSpaceOnUse">
<stop stop-color="#3D3D3D"/>
<stop offset="0.628054" stop-color="#737373"/>
<stop offset="1" stop-color="#B8B8B8"/>
</linearGradient>
<linearGradient id="paint4_linear_40_9353" x1="1097.19" y1="239.828" x2="1175.64" y2="148.157" gradientUnits="userSpaceOnUse">
<stop stop-color="#3D3D3D"/>
<stop offset="0.287417" stop-color="#4D4D4D"/>
<stop offset="0.432494" stop-color="#585858"/>
<stop offset="0.682295" stop-color="#737373"/>
<stop offset="1" stop-color="#A8A8A8"/>
</linearGradient>
<linearGradient id="paint5_linear_40_9353" x1="362.691" y1="642.983" x2="294.614" y2="630.151" gradientUnits="userSpaceOnUse">
<stop stop-color="#9DF1F1"/>
<stop offset="1" stop-color="white"/>
</linearGradient>
<linearGradient id="paint6_linear_40_9353" x1="431.172" y1="1112.73" x2="212.082" y2="1052.92" gradientUnits="userSpaceOnUse">
<stop stop-color="#E8EAE9"/>
<stop offset="0.498386" stop-color="#707072"/>
<stop offset="1" stop-color="#2F3032"/>
</linearGradient>
<linearGradient id="paint7_linear_40_9353" x1="413.784" y1="955.254" x2="216.076" y2="872.901" gradientUnits="userSpaceOnUse">
<stop stop-color="#E8EAE9"/>
<stop offset="0.498386" stop-color="#707072"/>
<stop offset="1" stop-color="#2F3032"/>
</linearGradient>
<linearGradient id="paint8_linear_40_9353" x1="423.908" y1="929.647" x2="220.963" y2="843.23" gradientUnits="userSpaceOnUse">
<stop stop-color="#E8EAE9"/>
<stop offset="0.498386" stop-color="#707072"/>
<stop offset="1" stop-color="#2F3032"/>
</linearGradient>
<linearGradient id="paint9_linear_40_9353" x1="364.94" y1="636.949" x2="303.935" y2="627.236" gradientUnits="userSpaceOnUse">
<stop stop-color="#9DF1F1"/>
<stop offset="1" stop-color="white"/>
</linearGradient>
<linearGradient id="paint10_linear_40_9353" x1="392.32" y1="606.816" x2="323.065" y2="585.862" gradientUnits="userSpaceOnUse">
<stop stop-color="#D2D2D2"/>
<stop offset="0.350909" stop-color="#CACACA"/>
<stop offset="1" stop-color="#F6F6F6"/>
</linearGradient>
<clipPath id="clip0_40_9353">
<rect width="1873" height="914" fill="white"/>
</clipPath>
</defs>
</svg>
