<svg width="48" height="49" viewBox="0 0 48 49" fill="none" xmlns="http://www.w3.org/2000/svg">
<rect x="0.722535" y="1.22254" width="46.5549" height="46.5549" rx="7.57042" stroke="#69C4CB" stroke-width="1.44507"/>
<path d="M19.05 20.95L16.2 23.8C16.0167 23.9833 15.7875 24.0792 15.5125 24.0875C15.2375 24.0958 15 24 14.8 23.8C14.6167 23.6167 14.5208 23.3875 14.5125 23.1125C14.5042 22.8375 14.5917 22.6 14.775 22.4L15.5 21.65L14.8 20.95C14.6 20.75 14.5 20.5167 14.5 20.25C14.5 19.9833 14.6 19.75 14.8 19.55L16.2 18.15L15.475 17.4C15.2917 17.2167 15.2 16.9875 15.2 16.7125C15.2 16.4375 15.3 16.2 15.5 16C15.6833 15.8167 15.9125 15.7208 16.1875 15.7125C16.4625 15.7042 16.7 15.7917 16.9 15.975L17.65 16.7L19.05 15.3C19.25 15.1 19.4833 15 19.75 15C20.0167 15 20.25 15.1 20.45 15.3L21.15 16L21.9 15.275C22.0833 15.0917 22.3125 15 22.5875 15C22.8625 15 23.1 15.1 23.3 15.3C23.4833 15.4833 23.575 15.7167 23.575 16C23.575 16.2833 23.4833 16.5167 23.3 16.7L20.45 19.55L28.95 28.05L31.8 25.2C31.9833 25.0167 32.2125 24.9208 32.4875 24.9125C32.7625 24.9042 33 25 33.2 25.2C33.3833 25.3833 33.4792 25.6125 33.4875 25.8875C33.4958 26.1625 33.4083 26.4 33.225 26.6L32.5 27.35L33.2 28.05C33.4 28.25 33.5 28.4833 33.5 28.75C33.5 29.0167 33.4 29.25 33.2 29.45L31.8 30.85L32.525 31.6C32.7083 31.7833 32.8 32.0125 32.8 32.2875C32.8 32.5625 32.7 32.8 32.5 33C32.3167 33.1833 32.0875 33.2792 31.8125 33.2875C31.5375 33.2958 31.3 33.2083 31.1 33.025L30.35 32.3L28.95 33.7C28.75 33.9 28.5167 34 28.25 34C27.9833 34 27.75 33.9 27.55 33.7L26.85 33L26.1 33.725C25.9167 33.9083 25.6875 34 25.4125 34C25.1375 34 24.9 33.9 24.7 33.7C24.5167 33.5167 24.425 33.2833 24.425 33C24.425 32.7167 24.5167 32.4833 24.7 32.3L27.55 29.45L19.05 20.95Z" fill="#69C4CB"/>
</svg>
