<svg width="48" height="49" viewBox="0 0 48 49" fill="none" xmlns="http://www.w3.org/2000/svg">
<rect x="0.722535" y="1.22254" width="46.5549" height="46.5549" rx="7.57042" stroke="#69C4CB" stroke-width="1.44507"/>
<path d="M24 34.5C22.6333 34.5 21.3417 34.2375 20.125 33.7125C18.9083 33.1875 17.8458 32.4708 16.9375 31.5625C16.0292 30.6542 15.3125 29.5917 14.7875 28.375C14.2625 27.1583 14 25.8667 14 24.5C14 23.1167 14.2625 21.8208 14.7875 20.6125C15.3125 19.4042 16.0292 18.3458 16.9375 17.4375C17.8458 16.5292 18.9083 15.8125 20.125 15.2875C21.3417 14.7625 22.6333 14.5 24 14.5C24.2833 14.5 24.5208 14.5958 24.7125 14.7875C24.9042 14.9792 25 15.2167 25 15.5C25 15.7833 24.9042 16.0208 24.7125 16.2125C24.5208 16.4042 24.2833 16.5 24 16.5C21.7833 16.5 19.8958 17.2792 18.3375 18.8375C16.7792 20.3958 16 22.2833 16 24.5C16 26.7167 16.7792 28.6042 18.3375 30.1625C19.8958 31.7208 21.7833 32.5 24 32.5C26.2167 32.5 28.1042 31.7208 29.6625 30.1625C31.2208 28.6042 32 26.7167 32 24.5C32 24.2167 32.0958 23.9792 32.2875 23.7875C32.4792 23.5958 32.7167 23.5 33 23.5C33.2833 23.5 33.5208 23.5958 33.7125 23.7875C33.9042 23.9792 34 24.2167 34 24.5C34 25.8667 33.7375 27.1583 33.2125 28.375C32.6875 29.5917 31.9708 30.6542 31.0625 31.5625C30.1542 32.4708 29.0958 33.1875 27.8875 33.7125C26.6792 34.2375 25.3833 34.5 24 34.5Z" fill="#69C4CB"/>
</svg>
