<svg width="48" height="49" viewBox="0 0 48 49" fill="none" xmlns="http://www.w3.org/2000/svg">
<rect x="0.722535" y="1.22254" width="46.5549" height="46.5549" rx="7.57042" stroke="#69C4CB" stroke-width="1.44507"/>
<path d="M24 18.5C23.45 18.5 22.9792 18.3042 22.5875 17.9125C22.1958 17.5208 22 17.05 22 16.5C22 15.95 22.1958 15.4792 22.5875 15.0875C22.9792 14.6958 23.45 14.5 24 14.5C24.55 14.5 25.0208 14.6958 25.4125 15.0875C25.8042 15.4792 26 15.95 26 16.5C26 17.05 25.8042 17.5208 25.4125 17.9125C25.0208 18.3042 24.55 18.5 24 18.5ZM21 33.5V21.5H16C15.7167 21.5 15.4792 21.4042 15.2875 21.2125C15.0958 21.0208 15 20.7833 15 20.5C15 20.2167 15.0958 19.9792 15.2875 19.7875C15.4792 19.5958 15.7167 19.5 16 19.5H32C32.2833 19.5 32.5208 19.5958 32.7125 19.7875C32.9042 19.9792 33 20.2167 33 20.5C33 20.7833 32.9042 21.0208 32.7125 21.2125C32.5208 21.4042 32.2833 21.5 32 21.5H27V33.5C27 33.7833 26.9042 34.0208 26.7125 34.2125C26.5208 34.4042 26.2833 34.5 26 34.5C25.7167 34.5 25.4792 34.4042 25.2875 34.2125C25.0958 34.0208 25 33.7833 25 33.5V28.5H23V33.5C23 33.7833 22.9042 34.0208 22.7125 34.2125C22.5208 34.4042 22.2833 34.5 22 34.5C21.7167 34.5 21.4792 34.4042 21.2875 34.2125C21.0958 34.0208 21 33.7833 21 33.5Z" fill="#69C4CB"/>
</svg>
